<?xml version="1.0" encoding="UTF-8"?>
<svg width="512" height="512" viewBox="0 0 512 512" xmlns="http://www.w3.org/2000/svg">
	<defs>
		<linearGradient id="logoGradient" x1="0%" y1="0%" x2="100%" y2="100%">
			<stop offset="0%" stop-color="#7579E7" />
			<stop offset="100%" stop-color="#5468ff" />
		</linearGradient>
	</defs>
	<rect width="512" height="512" rx="80" fill="url(#logoGradient)" />
	<g fill="white" transform="translate(96, 96)">
		<!-- Map icon with nodes -->
		<path
			d="M320 64v64h-34.7c-4.5-12.8-13.6-23.2-25.1-29.1L224 84.4V64h96m-96 84.4l36.2 14.5c.1 2.3.3 4.7.3 7.1 0 9.9-1.3 19.4-3.6 28.5L224 212.6V148.4m0 84.1l33-18.9c-5.8 7.2-13 13.3-21.3 17.7-3.8 1.4-7.7 2.6-11.7 3.5v-2.3m-32-169.9v20.4l-36.2 14.5c-11.4 5.9-20.6 16.4-25.1 29.1H96V64h96m0 84.4v64.1l-33 18.9c-8.3-4.4-15.5-10.5-21.3-17.7l33-18.9c3.9 0 7.5-2.1 9.4-5.5 1.9-3.4 1.9-7.5 0-11s-5.5-5.5-9.4-5.5c-3.9 0-7.5 2.1-9.4 5.5-.8 1.3-1.2 2.8-1.4 4.3l-36.2-14.5c-2.3-9.1-3.6-18.6-3.6-28.5 0-2.4.1-4.7.3-7.1l36.2-14.5c.2 1.5.6 3 1.4 4.3 1.9 3.4 5.5 5.5 9.4 5.5 3.9 0 7.5-2.1 9.4-5.5 1.9-3.4 1.9-7.5 0-11-1.9-3.4-5.5-5.5-9.4-5.5-3.9 0-7.5 2.1-9.4 5.5-.8 1.3-1.2 2.8-1.4 4.3l-36.2 14.5c-4-14.4-12.7-27.1-24.5-36.3-3.2-2.5-6.6-4.7-10.2-6.5v-2.3H192m-32 169.9v2.3c-4-.9-7.9-2.1-11.7-3.5-8.3-4.4-15.5-10.5-21.3-17.7l33 18.9M76 148.4l36.2 14.5c-2.3 9.1-3.6 18.6-3.6 28.5 0 2.4.1 4.7.3 7.1L76 212.6v-64.2m-32 142v-46.8c3.5 1.8 7 3.2 10.6 4.1 15.7 3.9 32.1 1.1 45.9-7.8 13.7-8.9 23.2-22.8 27.1-38.5 14.3 16.6 36.3 25.5 58.8 21.6 22.5-3.9 40.5-20.5 46.2-42.6 3.1 1.7 6.3 3.1 9.6 4.2 15.7 5.2 32.9 3.8 47.7-4 14.8-7.8 26.2-21.2 31.4-37.1 3.5 0 6.6-1 9.4-2.7 2.7-1.8 4.8-4.4 5.9-7.5 1.1-3 1.1-6.4 0-9.5-1.1-3.1-3.2-5.6-5.9-7.5-2.7-1.8-6-2.7-9.4-2.7-3.3 0-6.6 1-9.4 2.7-2.7 1.8-4.8 4.4-5.9 7.5-1.1 3-1.1 6.4 0 9.5 1.1 3.1 3.2 5.6 5.9 7.5 1.8 1.2 3.9 1.9 6.2 2.4-4.3 12.4-13.1 22.8-25 29-11.9 6.2-25.4 7.9-38.4 4.9-12.9-3-24.1-10.4-32.1-21.1 5.1-16.1 5.1-33.2 0-49.4 6.9-9.2 16.1-16.2 26.8-20.1 10.6-3.9 22.3-4.5 33.3-1.6 11 2.9 20.9 9 28.5 17.5 2.2 2.5 4.2 5.1 5.9 8H368V32H48v258.4"></path>
		<!-- RDF Symbol (Connected Nodes) -->
		<circle cx="128" cy="128" r="24" fill="white" stroke="#ff9100" stroke-width="8" />
		<circle cx="224" cy="96" r="24" fill="white" stroke="#ff9100" stroke-width="8" />
		<circle cx="256" cy="192" r="24" fill="white" stroke="#ff9100" stroke-width="8" />
		<line x1="147" y1="117" x2="205" y2="107" stroke="#ff9100" stroke-width="6" />
		<line x1="140" y1="145" x2="237" y2="180" stroke="#ff9100" stroke-width="6" />
		<line x1="247" y1="115" x2="253" y2="168" stroke="#ff9100" stroke-width="6" />
	</g>
</svg>